<svg width="507" height="508" viewBox="0 0 507 508" fill="none" xmlns="http://www.w3.org/2000/svg">
<path d="M506.681 252.525L254.823 0.667603L210.375 45.1163L462.232 296.974L506.681 252.525Z" fill="white"/>
<path d="M376.303 382.888L124.445 131.031L79.9966 175.479L331.854 427.337L376.303 382.888Z" fill="white"/>
<path d="M296.306 148.817L201.49 54.0007L157.042 98.4495L251.857 193.265L296.306 148.817Z" fill="white"/>
<path d="M453.346 305.855L358.53 211.039L314.082 255.488L408.897 350.303L453.346 305.855Z" fill="white"/>
<path d="M388.153 371.04L453.341 305.852L408.892 261.403L343.704 326.591L388.153 371.04Z" fill="white"/>
<path d="M157.043 187.327L240.008 104.362L195.559 59.9131L112.594 142.878L157.043 187.327Z" fill="white"/>
<path d="M284.452 267.34L382.23 169.562L337.782 125.113L240.003 222.892L284.452 267.34Z" fill="white"/>
<path d="M251.86 507.336L349.639 409.557L305.19 365.109L207.412 462.887L251.86 507.336Z" fill="white"/>
<path d="M148.153 403.644L222.229 329.567L177.781 285.118L103.704 359.195L148.153 403.644Z" fill="white"/>
<path d="M296.308 462.895L201.492 368.079L157.043 412.528L251.859 507.344L296.308 462.895Z" fill="white"/>
<path d="M139.268 305.857L44.4521 211.041L0.00342729 255.489L94.8194 350.305L139.268 305.857Z" fill="white"/>
<path d="M44.4488 299.929L115.562 228.815L71.1137 184.366L8.14388e-06 255.48L44.4488 299.929Z" fill="white"/>
</svg>
