<svg width="385" height="384" viewBox="0 0 385 384" fill="none" xmlns="http://www.w3.org/2000/svg">
<path d="M384.26 190.883L193.461 0.0839844L159.789 33.7563L350.587 224.555L384.26 190.883Z" fill="#272727"/>
<path d="M285.495 289.646L94.6963 98.8469L61.024 132.519L251.823 323.318L285.495 289.646Z" fill="#272727"/>
<path d="M224.88 112.309L153.052 40.4812L119.379 74.1537L191.207 145.982L224.88 112.309Z" fill="#272727"/>
<path d="M343.857 231.271L272.029 159.443L238.356 193.116L310.184 264.944L343.857 231.271Z" fill="#272727"/>
<path d="M294.47 280.666L343.854 231.282L310.182 197.61L260.798 246.994L294.47 280.666Z" fill="#272727"/>
<path d="M119.394 141.487L182.242 78.6389L148.569 44.9664L85.7216 107.814L119.394 141.487Z" fill="#272727"/>
<path d="M215.902 202.101L289.979 128.024L256.306 94.3519L182.229 168.428L215.902 202.101Z" fill="#272727"/>
<path d="M191.214 383.916L265.291 309.84L231.618 276.167L157.542 350.244L191.214 383.916Z" fill="#272727"/>
<path d="M112.652 305.364L168.768 249.248L135.096 215.575L78.9796 271.691L112.652 305.364Z" fill="#272727"/>
<path d="M224.878 350.241L153.05 278.413L119.377 312.085L191.205 383.913L224.878 350.241Z" fill="#272727"/>
<path d="M105.925 231.279L34.0967 159.451L0.424172 193.124L72.2521 264.952L105.925 231.279Z" fill="#272727"/>
<path d="M34.087 226.795L87.9614 172.921L54.2889 139.248L0.414474 193.123L34.087 226.795Z" fill="#272727"/>
</svg>
